<?xml version="1.0" standalone="no"?>
<!DOCTYPE svg PUBLIC "-//W3C//DTD SVG 20010904//EN"
 "http://www.w3.org/TR/2001/REC-SVG-20010904/DTD/svg10.dtd">
<svg version="1.0" xmlns="http://www.w3.org/2000/svg"
 width="638.000000pt" height="287.000000pt" viewBox="0 0 638.000000 287.000000"
 preserveAspectRatio="xMidYMid meet">

<g transform="translate(0.000000,287.000000) scale(0.100000,-0.100000)"
fill="#000000" stroke="none">
<path d="M3002 2509 c-162 -80 -162 -307 1 -390 l37 -19 0 -414 0 -414 -22 -6
c-37 -9 -95 -63 -117 -109 -52 -107 -7 -233 103 -289 58 -30 156 -22 213 16
51 34 93 111 93 170 0 41 1 41 68 74 76 36 154 109 199 186 26 44 32 49 71 52
215 19 270 310 77 407 -110 54 -235 13 -289 -95 -43 -87 -30 -177 35 -244 30
-31 30 -32 15 -63 -25 -47 -72 -96 -124 -129 -74 -47 -84 -48 -137 -7 -26 19
-53 35 -61 35 -12 0 -14 63 -14 415 l0 415 33 13 c42 18 96 72 113 114 16 37
18 130 5 166 -16 40 -73 99 -116 118 -55 25 -130 24 -183 -2z m174 -120 c33
-31 40 -79 18 -124 -50 -107 -204 -69 -204 49 0 101 111 145 186 75z m523
-725 c75 -63 31 -194 -66 -194 -88 0 -139 81 -102 163 27 58 116 75 168 31z
m-540 -510 c64 -45 58 -154 -11 -190 -93 -48 -194 44 -154 140 18 44 52 66
101 66 22 0 51 -7 64 -16z"/>
<path d="M3450 2297 c0 -23 -21 -108 -34 -139 -6 -14 0 -18 31 -24 230 -43
431 -201 534 -419 55 -118 72 -211 67 -358 -4 -103 -9 -136 -35 -210 -70 -201
-209 -357 -396 -446 -111 -53 -192 -71 -319 -71 -173 0 -310 46 -451 151 -131
98 -242 269 -282 434 -25 99 -23 266 4 368 40 152 149 320 266 408 l55 42 -45
48 c-43 46 -85 123 -85 155 0 20 -7 18 -110 -21 -375 -143 -701 -398 -918
-718 l-66 -98 18 -34 c38 -70 183 -252 275 -345 270 -270 600 -451 971 -532
95 -20 131 -23 370 -23 238 0 275 3 369 23 311 68 606 212 836 408 152 129
348 353 409 468 l19 36 -45 67 c-150 226 -400 466 -616 592 -206 120 -433 206
-638 241 -157 27 -184 27 -184 -3z m-748 -242 c-118 -107 -207 -253 -258 -422
-24 -77 -27 -106 -28 -233 0 -120 4 -159 22 -230 46 -170 156 -353 278 -458
l49 -42 -60 21 c-232 82 -512 268 -686 457 -61 66 -177 215 -186 239 -6 16 68
121 155 220 136 156 348 317 545 413 92 45 197 87 221 89 5 1 -18 -24 -52 -54z
m1241 19 c301 -116 592 -343 785 -612 53 -74 54 -67 -47 -194 -136 -172 -324
-336 -508 -444 -92 -54 -321 -159 -330 -150 -2 2 14 19 37 37 56 45 150 163
196 245 69 123 114 297 114 440 0 243 -123 513 -303 665 -32 27 -54 49 -47 49
6 0 52 -16 103 -36z"/>
</g>
</svg>
