<svg version="1.1" id="Layer_1" xmlns="http://www.w3.org/2000/svg" xmlns:xlink="http://www.w3.org/1999/xlink" x="0px" y="0px"
	 width="100%" viewBox="0 0 638 287" enable-background="new 0 0 638 287" xml:space="preserve">
<path fill="#000000" opacity="1.000000" stroke="none" 
	d="
M394.000000,288.000000 
	C262.666656,288.000000 131.833328,288.000000 1.000000,288.000000 
	C1.000000,192.333328 1.000000,96.666664 1.000000,1.000000 
	C213.666672,1.000000 426.333344,1.000000 639.000000,1.000000 
	C639.000000,96.666664 639.000000,192.333328 639.000000,288.000000 
	C557.500000,288.000000 476.000000,288.000000 394.000000,288.000000 
M407.526398,227.043915 
	C431.147308,216.233887 452.173370,201.735367 469.243103,182.069092 
	C477.857452,172.144348 485.510101,161.381348 493.490082,150.915390 
	C494.243317,149.927490 494.926727,147.941589 494.445801,147.116638 
	C492.016327,142.948959 489.574860,138.678604 486.431061,135.057693 
	C477.324860,124.569359 468.257507,113.996918 458.438080,104.195679 
	C451.767456,97.537399 444.298828,91.445518 436.411499,86.285858 
	C417.642517,74.007759 397.480957,64.424942 375.524841,59.328777 
	C365.637268,57.033806 355.467651,55.954247 346.294952,54.464359 
	C344.435822,62.032894 342.882019,68.358490 341.334503,74.658470 
	C377.428619,79.767807 402.665405,106.888672 405.752777,144.264572 
	C408.315979,175.294373 387.157593,220.608154 334.603119,224.663818 
	C311.142914,226.474274 276.997864,214.569061 261.683594,177.223511 
	C254.474564,159.643539 253.913742,141.574310 260.233368,123.917679 
	C266.003601,107.796059 275.756592,94.092682 291.632477,84.974258 
	C284.726532,79.000191 278.981781,72.661400 277.557404,63.549667 
	C277.464935,62.957996 275.461456,62.214493 274.435699,62.330048 
	C273.064911,62.484478 271.814178,63.502808 270.454742,63.990906 
	C254.471771,69.729492 239.080109,76.879913 225.190536,86.565765 
	C212.085068,95.704834 199.523849,105.639481 189.150970,118.139992 
	C181.799835,126.998970 173.902634,135.387543 168.407654,145.600784 
	C167.706009,146.904938 167.308365,149.193192 167.978439,150.281296 
	C172.232010,157.188339 176.222641,164.401184 181.455811,170.525528 
	C188.352524,178.596680 196.179443,185.897415 203.843063,193.283844 
	C221.698837,210.493729 242.531281,223.196655 265.690857,231.695129 
	C276.968811,235.833618 288.833130,239.011459 300.706085,240.720688 
	C313.863007,242.614731 327.379974,243.338867 340.653046,242.716141 
	C353.575897,242.109863 366.537231,239.825241 379.200775,237.012711 
	C388.679413,234.907547 397.711945,230.793777 407.526398,227.043915 
M291.277100,68.809044 
	C295.565277,72.346214 299.853424,75.883377 303.991516,79.296738 
	C304.312683,79.049469 303.471191,79.396629 303.473328,79.738556 
	C303.627686,104.658295 303.865051,129.577515 304.021881,154.497253 
	C304.030579,155.874207 303.843994,157.655090 303.004791,158.553452 
	C301.075989,160.618195 298.623413,162.181473 296.497437,164.076218 
	C284.910858,174.402695 284.500488,191.144562 298.342957,200.590408 
	C307.353149,206.738785 320.032410,205.126236 327.589722,196.085678 
	C332.016235,190.790359 333.408295,184.999222 333.015167,178.545120 
	C344.892151,174.242157 354.241730,167.243393 359.954437,155.961823 
	C361.082794,153.733566 361.910034,151.873825 365.192291,151.898285 
	C378.690094,151.998840 389.697998,138.600296 385.102112,123.356949 
	C381.180695,110.350639 369.266663,105.916481 357.119171,108.403191 
	C350.749268,109.707176 345.667206,114.480988 343.395233,119.469444 
	C339.164948,128.757507 339.653015,138.527802 348.470795,146.113953 
	C349.296936,146.824722 349.703278,149.254990 349.138702,150.158005 
	C344.127655,158.172699 337.502716,164.415756 328.811646,167.455612 
	C325.562439,165.274200 322.362274,163.310516 319.398071,161.038879 
	C318.309601,160.204727 317.100555,158.645569 317.094391,157.411377 
	C316.962646,131.087799 316.994476,104.763412 316.994476,78.532379 
	C318.740021,77.632141 320.331451,76.869431 321.868286,76.009155 
	C330.437134,71.212563 335.538086,59.338406 332.847107,50.509613 
	C330.549194,42.970409 320.977570,34.550694 313.827637,34.038456 
	C303.833984,33.322502 296.206482,37.359283 291.006744,45.929855 
	C286.529938,53.308811 287.912201,60.698673 291.277100,68.809044 
z"/>
<path fill="#FEFEFE" opacity="1.000000" stroke="none" 
	d="
M407.234741,227.309143 
	C397.711945,230.793777 388.679413,234.907547 379.200775,237.012711 
	C366.537231,239.825241 353.575897,242.109863 340.653046,242.716141 
	C327.379974,243.338867 313.863007,242.614731 300.706085,240.720688 
	C288.833130,239.011459 276.968811,235.833618 265.690857,231.695129 
	C242.531281,223.196655 221.698837,210.493729 203.843063,193.283844 
	C196.179443,185.897415 188.352524,178.596680 181.455811,170.525528 
	C176.222641,164.401184 172.232010,157.188339 167.978439,150.281296 
	C167.308365,149.193192 167.706009,146.904938 168.407654,145.600784 
	C173.902634,135.387543 181.799835,126.998970 189.150970,118.139992 
	C199.523849,105.639481 212.085068,95.704834 225.190536,86.565765 
	C239.080109,76.879913 254.471771,69.729492 270.454742,63.990906 
	C271.814178,63.502808 273.064911,62.484478 274.435699,62.330048 
	C275.461456,62.214493 277.464935,62.957996 277.557404,63.549667 
	C278.981781,72.661400 284.726532,79.000191 291.632477,84.974258 
	C275.756592,94.092682 266.003601,107.796059 260.233368,123.917679 
	C253.913742,141.574310 254.474564,159.643539 261.683594,177.223511 
	C276.997864,214.569061 311.142914,226.474274 334.603119,224.663818 
	C387.157593,220.608154 408.315979,175.294373 405.752777,144.264572 
	C402.665405,106.888672 377.428619,79.767807 341.334503,74.658470 
	C342.882019,68.358490 344.435822,62.032894 346.294952,54.464359 
	C355.467651,55.954247 365.637268,57.033806 375.524841,59.328777 
	C397.480957,64.424942 417.642517,74.007759 436.411499,86.285858 
	C444.298828,91.445518 451.767456,97.537399 458.438080,104.195679 
	C468.257507,113.996918 477.324860,124.569359 486.431061,135.057693 
	C489.574860,138.678604 492.016327,142.948959 494.445801,147.116638 
	C494.926727,147.941589 494.243317,149.927490 493.490082,150.915390 
	C485.510101,161.381348 477.857452,172.144348 469.243103,182.069092 
	C452.173370,201.735367 431.147308,216.233887 407.234741,227.309143 
M460.547760,170.120956 
	C465.534698,164.081268 470.615723,158.115341 475.445435,151.952454 
	C476.726166,150.318176 477.619568,148.695419 475.745361,145.976639 
	C467.255768,133.661591 457.584290,122.588783 446.347809,112.632660 
	C432.253326,100.144196 416.544434,90.503937 399.444275,82.930969 
	C395.864258,81.345528 392.141937,80.081375 388.485199,78.669174 
	C409.171722,96.959320 420.078461,119.832039 420.725433,146.829681 
	C421.366547,173.582153 411.118408,196.608841 392.172363,216.054092 
	C393.735901,216.336395 395.217987,216.437012 396.435333,215.917389 
	C410.557434,209.889343 424.047668,202.617004 435.944031,192.905930 
	C444.401093,186.002335 452.038971,178.095291 460.547760,170.120956 
M245.030884,175.253250 
	C241.540543,160.735474 239.658905,146.219925 242.916946,131.291718 
	C246.035065,117.004631 251.774384,104.101143 260.849915,92.653198 
	C263.704895,89.051918 266.460846,85.372124 269.861206,80.948959 
	C267.940704,81.099190 267.087189,80.967247 266.402985,81.247986 
	C233.486725,94.754456 206.763596,116.052605 186.451157,145.262527 
	C185.453110,146.697754 185.303635,150.003586 186.275162,151.316086 
	C191.785797,158.760788 197.445236,166.145645 203.640228,173.022827 
	C215.877487,186.607681 230.445770,197.426895 246.209534,206.542984 
	C252.925644,210.426895 260.220856,213.309448 268.294495,217.141403 
	C258.627808,203.411880 249.837631,190.919098 245.030884,175.253250 
z"/>
<path fill="#FEFEFE" opacity="1.000000" stroke="none" 
	d="
M291.147369,68.445053 
	C287.912201,60.698673 286.529938,53.308811 291.006744,45.929855 
	C296.206482,37.359283 303.833984,33.322502 313.827637,34.038456 
	C320.977570,34.550694 330.549194,42.970409 332.847107,50.509613 
	C335.538086,59.338406 330.437134,71.212563 321.868286,76.009155 
	C320.331451,76.869431 318.740021,77.632141 316.994476,78.532379 
	C316.994476,104.763412 316.962646,131.087799 317.094391,157.411377 
	C317.100555,158.645569 318.309601,160.204727 319.398071,161.038879 
	C322.362274,163.310516 325.562439,165.274200 328.811646,167.455612 
	C337.502716,164.415756 344.127655,158.172699 349.138702,150.158005 
	C349.703278,149.254990 349.296936,146.824722 348.470795,146.113953 
	C339.653015,138.527802 339.164948,128.757507 343.395233,119.469444 
	C345.667206,114.480988 350.749268,109.707176 357.119171,108.403191 
	C369.266663,105.916481 381.180695,110.350639 385.102112,123.356949 
	C389.697998,138.600296 378.690094,151.998840 365.192291,151.898285 
	C361.910034,151.873825 361.082794,153.733566 359.954437,155.961823 
	C354.241730,167.243393 344.892151,174.242157 333.015167,178.545120 
	C333.408295,184.999222 332.016235,190.790359 327.589722,196.085678 
	C320.032410,205.126236 307.353149,206.738785 298.342957,200.590408 
	C284.500488,191.144562 284.910858,174.402695 296.497437,164.076218 
	C298.623413,162.181473 301.075989,160.618195 303.004791,158.553452 
	C303.843994,157.655090 304.030579,155.874207 304.021881,154.497253 
	C303.865051,129.577515 303.627686,104.658295 303.473328,79.738556 
	C303.471191,79.396629 304.312683,79.049469 303.991516,79.296738 
	C299.853424,75.883377 295.565277,72.346214 291.147369,68.445053 
M319.981842,61.167194 
	C322.258087,55.242405 320.203156,49.292042 315.100311,47.032017 
	C309.914246,44.735134 304.586792,46.707291 301.891113,51.459751 
	C298.063599,58.207542 301.700317,63.437294 305.849426,65.938713 
	C310.320831,68.634415 316.693268,66.694412 319.981842,61.167194 
M366.040253,139.999374 
	C372.437042,138.069153 375.133270,133.793747 373.994995,127.385406 
	C373.076996,122.217148 366.610168,118.614449 360.856934,120.066116 
	C355.940369,121.306686 352.247620,127.660385 353.740234,132.311020 
	C355.938416,139.160019 357.188568,139.999771 366.040253,139.999374 
M300.949738,179.467041 
	C299.500427,183.612350 301.146851,188.240738 304.826874,190.366333 
	C309.313873,192.958054 315.873596,192.618698 318.181702,189.203018 
	C320.642761,185.561050 322.195740,181.618210 319.779999,177.039383 
	C317.614227,172.934326 313.907684,171.038147 309.935181,171.212189 
	C305.684082,171.398453 301.912811,173.719147 300.949738,179.467041 
z"/>
<path fill="#000000" opacity="1.000000" stroke="none" 
	d="
M460.295105,170.378540 
	C452.038971,178.095291 444.401093,186.002335 435.944031,192.905930 
	C424.047668,202.617004 410.557434,209.889343 396.435333,215.917389 
	C395.217987,216.437012 393.735901,216.336395 392.172363,216.054092 
	C411.118408,196.608841 421.366547,173.582153 420.725433,146.829681 
	C420.078461,119.832039 409.171722,96.959320 388.485199,78.669174 
	C392.141937,80.081375 395.864258,81.345528 399.444275,82.930969 
	C416.544434,90.503937 432.253326,100.144196 446.347809,112.632660 
	C457.584290,122.588783 467.255768,133.661591 475.745361,145.976639 
	C477.619568,148.695419 476.726166,150.318176 475.445435,151.952454 
	C470.615723,158.115341 465.534698,164.081268 460.295105,170.378540 
z"/>
<path fill="#000000" opacity="1.000000" stroke="none" 
	d="
M245.243469,175.610886 
	C249.837631,190.919098 258.627808,203.411880 268.294495,217.141403 
	C260.220856,213.309448 252.925644,210.426895 246.209534,206.542984 
	C230.445770,197.426895 215.877487,186.607681 203.640228,173.022827 
	C197.445236,166.145645 191.785797,158.760788 186.275162,151.316086 
	C185.303635,150.003586 185.453110,146.697754 186.451157,145.262527 
	C206.763596,116.052605 233.486725,94.754456 266.402985,81.247986 
	C267.087189,80.967247 267.940704,81.099190 269.861206,80.948959 
	C266.460846,85.372124 263.704895,89.051918 260.849915,92.653198 
	C251.774384,104.101143 246.035065,117.004631 242.916946,131.291718 
	C239.658905,146.219925 241.540543,160.735474 245.243469,175.610886 
z"/>
<path fill="#000000" opacity="1.000000" stroke="none" 
	d="
M319.802917,61.533524 
	C316.693268,66.694412 310.320831,68.634415 305.849426,65.938713 
	C301.700317,63.437294 298.063599,58.207542 301.891113,51.459751 
	C304.586792,46.707291 309.914246,44.735134 315.100311,47.032017 
	C320.203156,49.292042 322.258087,55.242405 319.802917,61.533524 
z"/>
<path fill="#000000" opacity="1.000000" stroke="none" 
	d="
M365.614044,139.999771 
	C357.188568,139.999771 355.938416,139.160019 353.740234,132.311020 
	C352.247620,127.660385 355.940369,121.306686 360.856934,120.066116 
	C366.610168,118.614449 373.076996,122.217148 373.994995,127.385406 
	C375.133270,133.793747 372.437042,138.069153 365.614044,139.999771 
z"/>
<path fill="#000000" opacity="1.000000" stroke="none" 
	d="
M300.961365,179.064575 
	C301.912811,173.719147 305.684082,171.398453 309.935181,171.212189 
	C313.907684,171.038147 317.614227,172.934326 319.779999,177.039383 
	C322.195740,181.618210 320.642761,185.561050 318.181702,189.203018 
	C315.873596,192.618698 309.313873,192.958054 304.826874,190.366333 
	C301.146851,188.240738 299.500427,183.612350 300.961365,179.064575 
z"/>
</svg>